<?xml version="1.0" encoding="UTF-8" standalone="no"?>
<svg
   height="480"
   width="480"
   viewBox="0 0 480 480"
   version="1.1"
   id="svg31"
   sodipodi:docname="logo.svg"
   inkscape:version="1.2.2 (b0a8486541, 2022-12-01)"
   xmlns:inkscape="http://www.inkscape.org/namespaces/inkscape"
   xmlns:sodipodi="http://sodipodi.sourceforge.net/DTD/sodipodi-0.dtd"
   xmlns:xlink="http://www.w3.org/1999/xlink"
   xmlns="http://www.w3.org/2000/svg"
   xmlns:svg="http://www.w3.org/2000/svg">
  <sodipodi:namedview
     id="namedview33"
     pagecolor="#ffffff"
     bordercolor="#000000"
     borderopacity="0.25"
     inkscape:showpageshadow="2"
     inkscape:pageopacity="0.0"
     inkscape:pagecheckerboard="0"
     inkscape:deskcolor="#d1d1d1"
     showgrid="false"
     inkscape:zoom="1"
     inkscape:cx="-152.5"
     inkscape:cy="299.5"
     inkscape:window-width="2353"
     inkscape:window-height="1360"
     inkscape:window-x="-7"
     inkscape:window-y="1200"
     inkscape:window-maximized="0"
     inkscape:current-layer="svg31" />
  <defs
     id="defs13">
    <g
       id="king"
       transform="scale(0.15)">
      <path
         id="king__fill"
         d="m 397,1770 66,-244 -33,-187 q -1,0 -3,-4 v 0 q -5,-7 -28.5,-18.5 Q 375,1305 344,1277 v 0 q -44,-37 -68.5,-60 -24.5,-23 -44.5,-50 v 0 q -61,-84 -68,-203 v 0 Q 153,849 256,735 v 0 Q 360,621 537,628 v 0 q 66,4 155,32 v 0 q 29,12 59.5,23.5 Q 782,695 812,707 v 0 q 16,8 28,16 v 0 q -5,-21 -5,-42 v 0 q 0,-78 55.5,-133 55.5,-55 133.5,-56 v 0 q 78,0 133,55.5 55,55.5 55,132.5 v 0 q 0,16 -4,42 v 0 q 14,-9 27,-15 v 0 q 46,-20 121,-47 v 0 q 86,-29 155,-33 v 0 q 177,-8 280,107 v 0 q 101,114 94,229 v 0 q -8,119 -69,203 v 0 q -20,27 -45,50.5 -25,23.5 -67,59.5 v 0 q -33,28 -56,39.5 -23,11.5 -27,18.5 v 0 q -1,2 -2,3 -1,1 -1,2 v 0 l -32,188 66,247 q -50,45 -224,74 -174,29 -402,29 v 0 Q 794,1877 618,1846.5 442,1816 397,1770 Z m 663,-1411 -1,130 H 988 V 358 h -83 q -34,0 -34,-33 v 0 -1 q 0,-33 34,-33 v 0 h 83 v -85 q 0,-35 36,-35 v 0 0 q 35,0 35,35 v 0 85 h 86 q 33,0 33,33 v 0 1 q 0,33 -33,33 v 0 z" />
      <path
         id="king__white-parts"
         d="m 1502,1535 16,-101 q -184,-51 -490,-51 v 0 q -308,0 -496,52 v 0 l 15,101 q 189,-49 481,-49 v 0 q 291,0 474,48 z m 42,198 v 0 l -30,-118 q -195,-45 -490,-45 v 0 q -292,0 -488,45 v 0 l -32,119 q 190,-58 521,-58 v 0 q 159,0 295,16 136,16 224,41 z m -411,-550 v 0 q 0,-29 6.5,-82.5 6.5,-53.5 20.5,-83.5 v 0 q 37,-81 106,-150 v 0 q 20,-20 86,-54 v 0 q 65,-32 139,-32 v 0 q 56,0 111.5,19.5 55.5,19.5 83.5,59.5 v 0 q 25,34 25,110 v 0 q 0,60 -49,112 v 0 q -32,33 -69,66.5 -37,33.5 -71,78.5 v 0 q -58,-20 -161.5,-31 -103.5,-11 -227.5,-13 z m -73,78 v 0 q 172,3 282,17 110,14 198,33 v 0 q 55,-54 122,-103 67,-49 94,-84 v 0 q 48,-65 48,-162 v 0 q 0,-89 -43,-149 v 0 Q 1684,700 1526,700 v 0 q -92,0 -192,40 v 0 q -91,36 -132,78 v 0 q -85,82 -124,216 v 0 q -15,46 -16.5,117 -1.5,71 -1.5,110 z m -72,-1 v 0 q 0,-40 -2,-110.5 -2,-70.5 -15,-117.5 v 0 Q 930,898 847,816 v 0 Q 804,774 715,738 v 0 Q 613,698 522,698 v 0 q -158,0 -234,113 v 0 q -43,60 -43,150 v 0 q 0,98 48,161 v 0 q 25,36 96,89 71,53 120,98 v 0 q 87,-19 196.5,-33 109.5,-14 282.5,-16 z m 36,-251 v 0 q 7,-28 12,-39 v 0 q 10,-39 23,-66 v 0 q 6,-17 17.5,-39.5 Q 1088,842 1101,813 v 0 q 8,-17 17,-41.5 9,-24.5 18,-48.5 v 0 q 8,-20 8,-43 v 0 q 0,-49 -35,-83.5 -35,-34.5 -85,-34.5 v 0 q -119,0 -119,119 v 0 q 0,23 8,43 v 0 q 22,65 34,90 v 0 q 13,29 24,51.5 11,22.5 19,39.5 v 0 q 13,33 22,66 v 0 q 2,6 12,38 z m -112,174 v 0 q -125,2 -228.5,13 -103.5,11 -160.5,31 v 0 Q 493,1190 453.5,1152.5 414,1115 384,1082 v 0 q -50,-51 -50,-112 v 0 q 0,-75 25,-110 v 0 Q 386,820 442,800.5 498,781 555,781 v 0 q 72,0 138,32 v 0 q 65,34 86,54 v 0 q 68,69 106,150 v 0 q 13,30 19.5,83.5 6.5,53.5 7.5,82.5 z m 112,-345 v 0 q -2,-10 -5,-17 v 0 q -6,-20 -10,-29 v 0 q -3,-7 -8,-17.5 Q 996,764 991,752 v 0 q -3,-7 -7.5,-18.5 Q 979,722 976,712 v 0 q -3,-9 -3,-19 v 0 q 0,-53 51,-53 v 0 q 53,0 53,52 v 0 q 0,13 -4,19 v 0 q -14,38 -15,41 v 0 q -15,30 -19,39 v 0 q -7,16 -9,29 v 0 q -3,6 -4,10.5 -1,4.5 -2,7.5 z"
         fill="#f9f9fa" />
    </g>
    <clipPath
       id="circle-7">
      <circle
         r="240"
         cy="272"
         cx="256"
         id="circle5-9" />
    </clipPath>
    <clipPath
       clipPathUnits="userSpaceOnUse"
       id="clipPath42418">
      <circle
         style="fill:#363959;fill-opacity:1;stroke-width:2.53293"
         id="circle42420"
         inkscape:label="background"
         r="240"
         cy="218.62712"
         cx="303.89789"
         transform="rotate(8.269331)" />
    </clipPath>
    <clipPath
       clipPathUnits="userSpaceOnUse"
       id="clipPath42422">
      <circle
         style="fill:#363959;fill-opacity:1;stroke-width:2.53293"
         id="circle42424"
         inkscape:label="background"
         r="240"
         cy="346.3717"
         cx="203.39789"
         transform="rotate(8.269331)" />
    </clipPath>
    <clipPath
       clipPathUnits="userSpaceOnUse"
       id="clipPath42426">
      <circle
         style="fill:#363959;fill-opacity:1;stroke-width:2.53293"
         id="circle42428"
         inkscape:label="background"
         r="240"
         cy="397.3717"
         cx="397.54877"
         transform="rotate(8.269331)" />
    </clipPath>
  </defs>
  <circle
     style="display:inline;fill:#363959;fill-opacity:1;stroke-width:2.53293"
     id="path38374"
     cx="397.54877"
     cy="397.3717"
     r="240"
     inkscape:label="background"
     transform="translate(-157.54877,-157.3717)" />
  <g
     id="g34551"
     inkscape:label="green-trail"
     transform="rotate(-8.269331,-1167.2635,1011.028)"
     style="display:inline;fill:#39b030;fill-opacity:1"
     clip-path="url(#clipPath42426)">
    <rect
       style="display:inline;fill:#39b030;fill-opacity:1"
       id="rect34545"
       width="33.852295"
       height="278.44101"
       x="32.713959"
       y="450.40836"
       transform="rotate(-15)" />
    <rect
       style="display:inline;fill:#39b030;fill-opacity:1;stroke-width:2.82628"
       id="rect34547"
       width="218.627"
       height="245.121"
       x="407.53415"
       y="-289.54993"
       transform="rotate(75.000001)"
       ry="0" />
    <rect
       style="display:inline;fill:#39b030;fill-opacity:1"
       id="rect34549"
       width="33.852295"
       height="70.341003"
       x="44.402126"
       y="344.99969"
       transform="rotate(-15)" />
  </g>
  <use
     id="green-king"
     href="#king"
     xlink:href="#king"
     x="198"
     y="-1"
     fill="#14b184"
     style="display:inline;fill:#57cf4f;fill-opacity:1"
     transform="translate(-207.13526,-21)" />
  <g
     id="g28005"
     inkscape:label="red-trail"
     transform="rotate(-8.269331,-717.43757,-306.35078)"
     style="display:inline;fill:#e01e00;fill-opacity:1"
     clip-path="url(#clipPath42422)">
    <rect
       style="display:inline;fill:#e01e00;fill-opacity:1"
       id="rect27999"
       width="33.852295"
       height="175.541"
       x="32.713959"
       y="450.40836"
       transform="rotate(-15)" />
    <rect
       style="display:inline;fill:#e01e00;fill-opacity:1;stroke-width:2.82628"
       id="rect28001"
       width="218.627"
       height="245.121"
       x="407.53415"
       y="-289.54993"
       transform="rotate(75.000001)"
       ry="0" />
    <rect
       style="display:inline;fill:#e01e00;fill-opacity:1"
       id="rect28003"
       width="33.852295"
       height="70.341003"
       x="44.402126"
       y="344.99969"
       transform="rotate(-15)" />
  </g>
  <use
     id="red-king"
     href="#king"
     xlink:href="#king"
     x="4"
     y="61"
     fill="#ff0059"
     style="display:inline;fill:#ff3d19;fill-opacity:1"
     transform="translate(180.86474,-32)" />
  <g
     id="g20643"
     inkscape:label="blue-trail"
     transform="rotate(-8.269331,115.88038,452.6475)"
     style="display:inline;fill:#1c99ff;fill-opacity:1"
     clip-path="url(#clipPath42418)">
    <rect
       style="display:inline;fill:#1c99ff;fill-opacity:1"
       id="rect17724"
       width="33.852295"
       height="175.541"
       x="32.713959"
       y="450.40836"
       transform="rotate(-15)" />
    <rect
       style="display:inline;fill:#1c99ff;fill-opacity:1;stroke-width:2.82628"
       id="rect9681"
       width="218.627"
       height="245.121"
       x="407.53415"
       y="-289.54993"
       transform="rotate(75.000001)"
       ry="0" />
    <rect
       style="display:inline;fill:#1c99ff;fill-opacity:1"
       id="rect22878"
       width="33.852295"
       height="70.341003"
       x="44.402126"
       y="344.99969"
       transform="rotate(-15)" />
  </g>
  <use
     id="blue-king"
     href="#king"
     xlink:href="#king"
     x="100"
     y="189"
     fill="#47baff"
     style="display:inline;fill:#5cb6ff;fill-opacity:1;stroke:none;stroke-opacity:1;stroke-width:5;stroke-dasharray:none;stroke-linejoin:miter;paint-order:normal"
     transform="translate(-15.479257,-32.255489)" />
</svg>
